<svg xmlns="http://www.w3.org/2000/svg" style="display: none">
	<symbol id="icon-home" viewBox="0 0 24 24">
		<path d="M4 21V9l8-6l8 6v12h-6v-7h-4v7z" />
	</symbol>

	<symbol id="icon-work-projects" viewBox="0 0 680 642">
		<path d="M680 221v120c-95 35-213 55-340 55S95 376 0 341V221c0-22 18-40 40-40h165v-30c0-46 38-85 85-85h100c47 0 85 39 85 85v30h165c22 0 40 18 40 40m-425-70v30h170v-30c0-19-16-35-35-35H290c-19 0-35 16-35 35m35 183v20c0 6 4 10 10 10h80c6 0 10-4 10-10v-20c0-6-4-10-10-10h-80c-6 0-10 4-10 10M0 602V384c96 33 213 52 340 52s244-19 340-52v218c0 22-18 40-40 40H40c-22 0-40-18-40-40m390-103v-20c0-6-4-10-10-10h-80c-6 0-10 4-10 10v20c0 6 4 10 10 10h80c6 0 10-4 10-10" />
	</symbol>

	<symbol id="icon-skills" viewBox="0 0 24 24">
		<path d="M17.75 15a.75.75 0 0 1-.75.75h-5a.75.75 0 0 1 0-1.5h5a.75.75 0 0 1 .75.75M7.48 9.424a.75.75 0 1 0-.96 1.152l.234.195c.659.55 1.09.91 1.366 1.216c.262.29.287.427.287.513s-.025.222-.287.513c-.277.306-.707.667-1.366 1.216l-.234.195a.75.75 0 0 0 .96 1.152l.277-.23c.605-.504 1.12-.933 1.476-1.328c.378-.42.674-.901.674-1.518s-.296-1.099-.674-1.518c-.356-.395-.871-.824-1.476-1.328z" />
		<path
			d="M11.943 1.25h.114c2.309 0 4.118 0 5.53.19c1.444.194 2.584.6 3.479 1.494c.895.895 1.3 2.035 1.494 3.48c.19 1.411.19 3.22.19 5.529v.114c0 2.309 0 4.118-.19 5.53c-.194 1.444-.6 2.584-1.494 3.479c-.895.895-2.035 1.3-3.48 1.494c-1.411.19-3.22.19-5.529.19h-.114c-2.309 0-4.118 0-5.53-.19c-1.444-.194-2.584-.6-3.479-1.494c-.895-.895-1.3-2.035-1.494-3.48c-.19-1.411-.19-3.22-.19-5.529v-.114c0-2.309 0-4.118.19-5.53c.194-1.444.6-2.584 1.494-3.479c.895-.895 2.035-1.3 3.48-1.494c1.411-.19 3.22-.19 5.529-.19m-5.33 1.676c-1.278.172-2.049.5-2.618 1.069c-.57.57-.897 1.34-1.069 2.619c-.174 1.3-.176 3.008-.176 5.386s.002 4.086.176 5.386c.172 1.279.5 2.05 1.069 2.62c.57.569 1.34.896 2.619 1.068c1.3.174 3.008.176 5.386.176s4.086-.002 5.386-.176c1.279-.172 2.05-.5 2.62-1.069c.569-.57.896-1.34 1.068-2.619c.174-1.3.176-3.008.176-5.386s-.002-4.086-.176-5.386c-.172-1.279-.5-2.05-1.069-2.62c-.57-.569-1.34-.896-2.619-1.068c-1.3-.174-3.008-.176-5.386-.176s-4.086.002-5.386.176"
			clip-rule="evenodd" />
	</symbol>

	<symbol id="icon-profile" viewBox="0 0 24 24">
		<g stroke-width="2.5">
			<path stroke-linejoin="round" d="M4 18a4 4 0 0 1 4-4h8a4 4 0 0 1 4 4a2 2 0 0 1-2 2H6a2 2 0 0 1-2-2Z" />
			<circle cx="12" cy="7" r="3" />
		</g>
	</symbol>

	<symbol id="icon-mail" viewBox="0 0 24 24">
		<g fill="none" stroke-width="1.5">
			<path d="m4.85 6.095l5.25-2.84a4 4 0 0 1 3.8 0l5.25 2.84a4 4 0 0 1 2.1 3.51v7.62a4 4 0 0 1-4 4H6.75a4 4 0 0 1-4-4v-7.62a4 4 0 0 1 2.1-3.51Z" />
			<path stroke-linecap="round" stroke-linejoin="round" d="m2.91 8.495l7.09 4.1a4 4 0 0 0 4 0l7.14-4" />
		</g>
	</symbol>

	<symbol id="icon-git-hub" viewBox="0 0 24 24">
		<g fill="none" stroke-linecap="round" stroke-linejoin="round" stroke-width="1.5">
			<path d="M16 22.027v-2.87a3.37 3.37 0 0 0-.94-2.61c3.14-.35 6.44-1.54 6.44-7a5.44 5.44 0 0 0-1.5-3.75a5.07 5.07 0 0 0-.09-3.77s-1.18-.35-3.91 1.48a13.4 13.4 0 0 0-7 0c-2.73-1.83-3.91-1.48-3.91-1.48A5.07 5.07 0 0 0 5 5.797a5.44 5.44 0 0 0-1.5 3.78c0 5.42 3.3 6.61 6.44 7a3.37 3.37 0 0 0-.94 2.58v2.87" />
			<path d="M9 20.027c-3 .973-5.5 0-7-3" />
		</g>
	</symbol>

	<symbol id="icon-linkedin" viewBox="0 0 24 24">
		<g fill="none" stroke-linecap="round" stroke-linejoin="round" stroke-width="1.5" color="#ffffff">
			<path d="M7 10v7m4-4v4m0-4a3 3 0 1 1 6 0v4m-6-4v-3M7.008 7h-.009" />
			<path d="M2.5 12c0-4.478 0-6.718 1.391-8.109S7.521 2.5 12 2.5c4.478 0 6.718 0 8.109 1.391S21.5 7.521 21.5 12c0 4.478 0 6.718-1.391 8.109S16.479 21.5 12 21.5c-4.478 0-6.718 0-8.109-1.391S2.5 16.479 2.5 12" />
		</g>
	</symbol>

	<symbol id="icon-dowm-arrow" width="20" height="20" viewBox="0 0 24 24">
		<path fill="#ffffff" d="M11.178 19.569a.998.998 0 0 0 1.644 0l9-13A.999.999 0 0 0 21 5H3a1.002 1.002 0 0 0-.822 1.569z" />
	</symbol>

	<symbol id="icon-instagram" viewBox="0 0 24 24">
		<g fill="none" stroke="#ffffff" stroke-width="1.5">
			<path stroke-linecap="round" stroke-linejoin="round" d="M12 16a4 4 0 1 0 0-8a4 4 0 0 0 0 8" />
			<path d="M3 16V8a5 5 0 0 1 5-5h8a5 5 0 0 1 5 5v8a5 5 0 0 1-5 5H8a5 5 0 0 1-5-5Z" />
			<path stroke-linecap="round" stroke-linejoin="round" d="m17.5 6.51l.01-.011" />
		</g>
	</symbol>

	<symbol id="icon-whatsapp" viewBox="0 0 24 24">
		<path
			fill="#ffffff"
			d="M12.04 2c-5.46 0-9.91 4.45-9.91 9.91c0 1.75.46 3.45 1.32 4.95L2.05 22l5.25-1.38c1.45.79 3.08 1.21 4.74 1.21c5.46 0 9.91-4.45 9.91-9.91c0-2.65-1.03-5.14-2.9-7.01A9.82 9.82 0 0 0 12.04 2m.01 1.67c2.2 0 4.26.86 5.82 2.42a8.23 8.23 0 0 1 2.41 5.83c0 4.54-3.7 8.23-8.24 8.23c-1.48 0-2.93-.39-4.19-1.15l-.3-.17l-3.12.82l.83-3.04l-.2-.32a8.2 8.2 0 0 1-1.26-4.38c.01-4.54 3.7-8.24 8.25-8.24M8.53 7.33c-.16 0-.43.06-.66.31c-.22.25-.87.86-.87 2.07c0 1.22.89 2.39 1 2.56c.14.17 1.76 2.67 4.25 3.73c.59.27 1.05.42 1.41.53c.59.19 1.13.16 1.56.1c.48-.07 1.46-.6 1.67-1.18s.21-1.07.15-1.18c-.07-.1-.23-.16-.48-.27c-.25-.14-1.47-.74-1.69-.82c-.23-.08-.37-.12-.56.12c-.16.25-.64.81-.78.97c-.15.17-.29.19-.53.07c-.26-.13-1.06-.39-2-1.23c-.74-.66-1.23-1.47-1.38-1.72c-.12-.24-.01-.39.11-.5c.11-.11.27-.29.37-.44c.13-.14.17-.25.25-.41c.08-.17.04-.31-.02-.43c-.06-.11-.56-1.35-.77-1.84c-.2-.48-.4-.42-.56-.43c-.14 0-.3-.01-.47-.01" />
	</symbol>

	<symbol id="icon-x" viewBox="0 0 24 24">
		<g fill="none" stroke="#ffffff" stroke-width="1.5">
			<path d="M16.82 20.768L3.753 3.968A.6.6 0 0 1 4.227 3h2.48a.6.6 0 0 1 .473.232l13.067 16.8a.6.6 0 0 1-.474.968h-2.48a.6.6 0 0 1-.473-.232Z" />
			<path stroke-linecap="round" d="M20 3L4 21" />
		</g>
	</symbol>

	<symbol id="icon-html" viewBox="0 0 128 128">
		<path fill="#ffffff" d="m9.032 2l10.005 112.093l44.896 12.401l45.02-12.387L118.968 2zm89.126 26.539l-.627 7.172L97.255 39H44.59l1.257 14h50.156l-.336 3.471l-3.233 36.119l-.238 2.27L64 102.609v.002l-.034.018l-28.177-7.423L33.876 74h13.815l.979 10.919L63.957 89H64v-.546l15.355-3.875L80.959 67H33.261l-3.383-38.117L29.549 25h68.939z" />
	</symbol>

	<symbol id="icon-css" viewBox="0 0 24 24">
		<path fill="#ffffff" d="m3 2l1.578 17.834L12 22l7.468-2.165L21 2zm13.3 14.722l-4.293 1.204H12l-4.297-1.204l-.297-3.167h2.108l.15 1.526l2.335.639l2.34-.64l.245-3.05h-7.27l-.187-2.006h7.64l.174-2.006H6.924l-.176-2.006h10.506z" />
	</symbol>

	<symbol id="icon-js" viewBox="0 0 448 512">
		<path
			fill="#ffffff"
			d="M0 32v448h448V32zm243.8 349.4c0 43.6-25.6 63.5-62.9 63.5c-33.7 0-53.2-17.4-63.2-38.5l34.3-20.7c6.6 11.7 12.6 21.6 27.1 21.6c13.8 0 22.6-5.4 22.6-26.5V237.7h42.1zm99.6 63.5c-39.1 0-64.4-18.6-76.7-43l34.3-19.8c9 14.7 20.8 25.6 41.5 25.6c17.4 0 28.6-8.7 28.6-20.8c0-14.4-11.4-19.5-30.7-28l-10.5-4.5c-30.4-12.9-50.5-29.2-50.5-63.5c0-31.6 24.1-55.6 61.6-55.6c26.8 0 46 9.3 59.8 33.7L368 290c-7.2-12.9-15-18-27.1-18c-12.3 0-20.1 7.8-20.1 18c0 12.6 7.8 17.7 25.9 25.6l10.5 4.5c35.8 15.3 55.9 31 55.9 66.2c0 37.8-29.8 58.6-69.7 58.6" />
	</symbol>

	<symbol id="icon-git" viewBox="0 0 24 24">
		<path fill="#ffffff" d="M2.6 10.59L8.38 4.8l1.69 1.7c-.24.85.15 1.78.93 2.23v5.54c-.6.34-1 .99-1 1.73a2 2 0 0 0 2 2a2 2 0 0 0 2-2c0-.74-.4-1.39-1-1.73V9.41l2.07 2.09c-.07.15-.07.32-.07.5a2 2 0 0 0 2 2a2 2 0 0 0 2-2a2 2 0 0 0-2-2c-.18 0-.35 0-.5.07L13.93 7.5a1.98 1.98 0 0 0-1.15-2.34c-.43-.16-.88-.2-1.28-.09L9.8 3.38l.79-.78c.78-.79 2.04-.79 2.82 0l7.99 7.99c.79.78.79 2.04 0 2.82l-7.99 7.99c-.78.79-2.04.79-2.82 0L2.6 13.41c-.79-.78-.79-2.04 0-2.82" />
	</symbol>

	<symbol id="icon-link" viewBox="0 0 24 24">
		<g fill="none" stroke-linecap="round" stroke-width="2">
			<path d="m12 17l-1.5 1.5a3.536 3.536 0 0 1-5 0v0a3.536 3.536 0 0 1 0-5l3-3a3.536 3.536 0 0 1 5 0v0" />
			<path d="m12 7l1.5-1.5a3.536 3.536 0 0 1 5 0v0a3.536 3.536 0 0 1 0 5l-3 3a3.536 3.536 0 0 1-5 0v0" />
		</g>
	</symbol>
</svg>

<svg xmlns="http://www.w3.org/2000/svg" style="display: none">
	<symbol id="icon-link" viewBox="0 0 24 24">
		<g fill="none" stroke="#ffffff" stroke-linecap="round" stroke-width="2">
			<path d="m12 17l-1.5 1.5a3.536 3.536 0 0 1-5 0v0a3.536 3.536 0 0 1 0-5l3-3a3.536 3.536 0 0 1 5 0v0" />
			<path d="m12 7l1.5-1.5a3.536 3.536 0 0 1 5 0v0a3.536 3.536 0 0 1 0 5l-3 3a3.536 3.536 0 0 1-5 0v0" />
		</g>
	</symbol>
</svg>
